<svg xmlns="http://www.w3.org/2000/svg" xmlns:xlink="http://www.w3.org/1999/xlink" viewBox="0 0 661.61 201.27"><defs><style>.cls-1{fill:url(#degradado_bluetab_RGB);}</style><linearGradient id="degradado_bluetab_RGB" y1="65.67" x2="661.61" y2="65.67" gradientUnits="userSpaceOnUse"><stop offset="0.22" stop-color="#212492"/><stop offset="0.33" stop-color="#25228f"/><stop offset="0.43" stop-color="#2f1a85"/><stop offset="0.44" stop-color="#311984"/><stop offset="0.49" stop-color="#49137f"/><stop offset="0.54" stop-color="#5b0e7b"/><stop offset="0.54" stop-color="#5c0e7a"/><stop offset="0.59" stop-color="#8e1e5d"/><stop offset="0.64" stop-color="#b52b46"/><stop offset="0.69" stop-color="#d13435"/><stop offset="0.73" stop-color="#e2392b"/><stop offset="0.75" stop-color="#e83b27"/><stop offset="0.79" stop-color="#e6401f"/><stop offset="0.91" stop-color="#e24d0d"/><stop offset="1" stop-color="#e05206"/></linearGradient></defs><g id="Capa_2" data-name="Capa 2"><g id="artwork"><g id="bluetab_an_IBM_Company"><path id="an_IBM_Company" data-name="an IBM Company" d="M110.46,192.1c-2.7,0-3.8-1.65-4.08-3.85h-.23c-1,2.89-3.53,4.4-6.83,4.4-5,0-7.93-2.75-7.93-7.15s3.21-6.92,10.09-6.92h4.67v-2.34c0-3.35-1.83-5.18-5.59-5.18a6.63,6.63,0,0,0-6,3.53l-2.2-2.06c1.29-2.52,4.13-4.63,8.39-4.63,5.69,0,9.08,3,9.08,8v13h2.7v3.21Zm-4.31-6.87v-3.9h-4.86c-4.17,0-6.05,1.28-6.05,3.58v1c0,2.34,1.83,3.67,4.68,3.67C103.54,189.54,106.15,187.66,106.15,185.23ZM118,192.1V168.45h3.67v3.85h.18a6.72,6.72,0,0,1,6.7-4.4c4.85,0,7.93,3.3,7.93,9V192.1h-3.67V177.57c0-4.22-1.83-6.37-5.36-6.37-2.94,0-5.78,1.47-5.78,4.49V192.1Zm34.34,0v-3.21h4.49V163.31h-4.49V160.1h12.84v3.21h-4.5v25.58h4.5v3.21Zm20.08-32h13.16c5.27,0,8.53,3.26,8.53,8.26,0,4.76-3.07,6.46-5.18,6.78v.28c2.29.13,6.28,2.11,6.28,7.42s-3.53,9.26-8.25,9.26H172.4ZM176.25,174h8.85c3,0,4.86-1.61,4.86-4.45v-1.56c0-2.84-1.83-4.44-4.86-4.44h-8.85Zm0,14.76h9.49c3.3,0,5.32-1.74,5.32-5V182.2c0-3.21-2-4.95-5.32-4.95h-9.49Zm26.32-28.61h5.13l9.17,17.24h.23l9.22-17.24h5v32h-3.76V165.15h-.23l-2.7,5.36-7.66,13.94-7.66-13.94-2.7-5.36h-.23V192.1h-3.76Zm45.07,16.19c0-10.68,4.81-16.74,12.88-16.74a11.29,11.29,0,0,1,11,7l-3.11,1.88a8.06,8.06,0,0,0-7.89-5.46c-5.5,0-8.76,4.36-8.76,10.91v4.77c0,6.56,3.26,10.55,8.76,10.55a8.31,8.31,0,0,0,8.16-5.78l3.07,1.92a11.76,11.76,0,0,1-11.23,7.29C252.45,192.65,247.64,187,247.64,176.29Zm28.19,4c0-7.52,4.36-12.38,10.69-12.38s10.68,4.86,10.68,12.38-4.36,12.37-10.68,12.37S275.83,187.79,275.83,180.28ZM293.26,182v-3.39c0-5-2.8-7.43-6.74-7.43s-6.74,2.43-6.74,7.43V182c0,5,2.79,7.43,6.74,7.43S293.26,187,293.26,182Zm10.22,10.13V168.45h3.67v3.85h.18c1.06-2.43,2.71-4.4,6.37-4.4a7.29,7.29,0,0,1,7.25,4.81H321c.87-2.57,3.16-4.81,7.2-4.81,4.81,0,7.7,3.3,7.7,9V192.1h-3.67V177.57c0-4.17-1.6-6.37-5.18-6.37-2.89,0-5.55,1.47-5.55,4.49V192.1h-3.66V177.57c0-4.22-1.61-6.37-5.09-6.37-2.89,0-5.64,1.47-5.64,4.49V192.1Zm40.26-23.65h3.66v3.85h.19c1.23-3,3.66-4.4,6.92-4.4,5.91,0,9.63,4.81,9.63,12.38s-3.72,12.37-9.63,12.37a7.11,7.11,0,0,1-6.92-4.4h-.19v13h-3.66Zm16.45,13.84v-4c0-4.22-2.56-7.06-6.69-7.06-3.35,0-6.1,1.92-6.1,4.54v8.8c0,3.07,2.75,4.81,6.1,4.81C357.63,189.35,360.19,186.51,360.19,182.29Zm27.56,9.81c-2.71,0-3.81-1.65-4.08-3.85h-.23c-1,2.89-3.53,4.4-6.83,4.4-5,0-7.93-2.75-7.93-7.15s3.2-6.92,10.08-6.92h4.68v-2.34c0-3.35-1.84-5.18-5.6-5.18a6.6,6.6,0,0,0-6,3.53l-2.2-2.06c1.28-2.52,4.12-4.63,8.39-4.63,5.68,0,9.08,3,9.08,8v13h2.7v3.21Zm-4.31-6.87v-3.9h-4.86c-4.17,0-6.05,1.28-6.05,3.58v1c0,2.34,1.83,3.67,4.67,3.67C380.83,189.54,383.44,187.66,383.44,185.23Zm11.83,6.87V168.45h3.67v3.85h.18a6.7,6.7,0,0,1,6.69-4.4c4.86,0,7.93,3.3,7.93,9V192.1h-3.66V177.57c0-4.22-1.84-6.37-5.37-6.37-2.93,0-5.77,1.47-5.77,4.49V192.1Zm40.48-23.65h3.62l-10.59,29.16c-1,2.84-2,3.66-5.5,3.66H421.4v-3.21h3.71l1.79-5-8.85-24.57h3.67l5.69,16.09,1.1,3.85h.23l1.28-3.85Z"/><path id="_bluetab" data-name="/bluetab" class="cls-1" d="M289.57,33.37l0,53.5c0,6.85-1.05,9.93-2.16,12.49-2.83,6.23-8.14,9.82-15.37,10.38-7.24-.56-12.58-3.92-15.41-10.14-1.12-2.56-2.17-5.88-2.17-12.49l0-41.28s0,0,0-.07a12.39,12.39,0,0,0-12.39-12.39H229.34V81.8c0,.7,0,1.39,0,2.08A69.73,69.73,0,0,0,232,102.27a38.62,38.62,0,0,0,7.51,14.44,31.18,31.18,0,0,0,3,3,43.37,43.37,0,0,0,59.09,0,30.06,30.06,0,0,0,3-3A38.33,38.33,0,0,0,312,102.27a69.3,69.3,0,0,0,2.64-18.39c0-.69,0-1.38,0-2.08v-36a12.39,12.39,0,0,0-12.38-12.39ZM505.4,108.54Q502,105.89,502,99.92a10.63,10.63,0,0,1,5.5-9.88q3.24-1.87,10.7-3.18l5.29-1a38.39,38.39,0,0,0,6.25-1.59A25.29,25.29,0,0,0,534.29,82V90.7q-.25,11.67-6.67,16.08a24.34,24.34,0,0,1-14.06,4.41,12.75,12.75,0,0,1-8.16-2.65M485.22,43.63q-6.2,8-7,20.42h23.9a17.9,17.9,0,0,1,3.52-8.69q3.7-4.35,12.6-4.35,7.92,0,12,2.22t4.1,8q0,4.78-5.34,7a39.24,39.24,0,0,1-9.89,2.17l-8.5,1c-32.15,4.78-33.21,23.77-33.21,31.37,0,21.22,25.95,28.42,39.46,28.42a52,52,0,0,0,25.52-6.72,37.59,37.59,0,0,0,16.55-30v-34q0-17.12-12.13-23.29t-27.75-6.17q-24,0-33.87,12.52M355.92,56.69q5.25-5.41,14.79-5.41a21.69,21.69,0,0,1,14.69,5.11q5.93,5.1,6.6,15H349.32q1.35-9.25,6.6-14.66M336.82,44q-13.05,13.13-13.05,37.75,0,26.27,14.46,37.92a51.65,51.65,0,0,0,33.37,11.66q22.9,0,35.64-13.82,8.17-8.69,9.18-17.12h-18c-.45,0-.89,0-1.3,0a11.25,11.25,0,0,0-8.62,4s0,0,0,0A17.11,17.11,0,0,1,386,106.9q-5.29,4.34-13.75,4.34a25.13,25.13,0,0,1-13.66-3.56q-9.33-5.73-9.9-20h69a120.82,120.82,0,0,0-.82-18.8,46.51,46.51,0,0,0-7.54-19.58,38.57,38.57,0,0,0-16.37-14,54,54,0,0,0-22.28-4.44q-20.83,0-33.88,13.14M427.55,7.82V110.2q0,8.86,4.17,13.12,6.43,6.71,24,6.09l11.73-.44V110.46c-.81.06-1.63.1-2.47.13s-1.64,0-2.39,0c-5,0-8.06-.47-9-1.43s-1.48-3.37-1.48-7.26v-50h15.38v-5.3a12.37,12.37,0,0,0-11.77-12.35h-3.61V20.18A12.39,12.39,0,0,0,439.68,7.82Zm-305.46,95q-5.66-8.37-5.66-21.12,0-10.83,2.74-17.65,5.3-12.84,19.44-12.83,14,0,19.17,13.1,2.73,6.92,2.74,17.48,0,13.18-5.57,21.29a17.88,17.88,0,0,1-15.61,8.1q-11.59,0-17.25-8.37M92.36.18v80c0,.54-.06,1-.06,1.59q0,26.27,14.46,37.92c9.42,7.6,18.87,11.45,31.13,11.62a51.51,51.51,0,0,0,32.53-11.62q14.45-11.65,14.45-37.92,0-24.63-13.05-37.75T137.94,30.91h-.11c-8.08,0-17,4-20.7,10V12.27A12.38,12.38,0,0,0,104.76.18ZM598.82,102.86q-5.66-8.37-5.65-21.12,0-10.83,2.74-17.65,5.3-12.84,19.44-12.83,14,0,19.16,13.1,2.75,6.92,2.74,17.48,0,13.18-5.56,21.29a17.89,17.89,0,0,1-15.61,8.1q-11.6,0-17.26-8.37M569.09.18v80c0,.54-.05,1-.05,1.59q0,26.27,14.45,37.92c9.43,7.6,18.88,11.45,31.13,11.62a51.51,51.51,0,0,0,32.53-11.62q14.46-11.65,14.46-37.92,0-24.63-13.05-37.75T614.69,30.91h-.12c-8.08,0-17,4-20.71,10V12.27A12.37,12.37,0,0,0,581.49.18ZM57,.11h-.09A12.65,12.65,0,0,0,45.18,8L0,128.1H15.85a12.68,12.68,0,0,0,10.91-6.28L72.73.11ZM194.7,0V128.1h24.77V12.56A12.39,12.39,0,0,0,207.08.18,8.78,8.78,0,0,1,205.43,0Z"/></g></g></g></svg>