<svg id="svg" xmlns="http://www.w3.org/2000/svg" xmlns:xlink="http://www.w3.org/1999/xlink" width="400" height="400" viewBox="0, 0, 400,400"><g id="svgg"><path id="path0" d="M121.855 2.745 C 86.569 14.266,60.056 42.243,50.158 78.404 C 45.819 94.254,43.447 97.564,29.832 106.768 C -14.942 137.036,-9.989 202.724,39.063 229.192 C 51.368 235.832,53.875 235.938,200.000 235.938 C 365.313 235.938,360.358 236.548,381.674 213.567 C 412.300 180.552,404.597 124.862,366.491 103.796 C 356.867 98.475,353.020 94.093,351.405 86.608 C 341.245 39.527,289.154 10.543,243.591 26.619 C 230.544 31.222,229.909 31.140,222.104 23.837 C 201.475 4.535,149.723 -6.354,121.855 2.745 M124.358 88.289 C 130.510 95.702,163.211 187.390,161.393 192.129 C 157.940 201.126,146.855 197.589,141.986 185.938 C 137.450 175.082,137.268 175.000,117.773 175.000 C 98.161 175.000,98.124 175.017,94.176 185.938 C 91.197 194.173,88.423 196.875,82.945 196.875 C 70.675 196.875,71.638 189.880,90.958 138.699 C 111.077 85.399,115.908 78.108,124.358 88.289 M247.287 96.317 C 266.850 118.212,254.436 146.061,222.725 151.419 L 209.649 153.628 208.731 174.470 C 207.854 194.374,207.461 195.313,200.000 195.313 L 192.188 195.313 191.327 144.166 C 190.293 82.683,190.052 83.212,218.250 85.008 C 236.131 86.147,239.304 87.382,247.287 96.317 M299.697 88.697 C 302.156 91.660,303.013 109.100,302.423 144.166 L 301.563 195.313 293.750 195.313 L 285.938 195.313 285.077 144.166 C 284.255 95.318,285.843 84.375,293.750 84.375 C 295.048 84.375,297.724 86.320,299.697 88.697 M209.375 118.750 C 209.375 134.563,228.263 138.100,234.901 123.530 C 239.666 113.073,233.755 106.250,219.930 106.250 C 209.699 106.250,209.375 106.634,209.375 118.750 M111.761 139.063 L 106.549 153.125 117.548 153.125 C 129.354 153.125,129.378 152.996,121.535 132.031 C 118.026 122.651,117.777 122.830,111.761 139.063 M72.993 273.087 C 74.822 288.649,74.382 290.311,67.174 295.034 C 47.989 307.604,73.277 348.457,93.532 337.617 C 99.190 334.589,102.057 335.629,113.355 344.809 C 129.433 357.873,147.623 367.800,163.281 372.056 C 172.648 374.602,175.000 376.734,175.000 382.677 C 175.000 398.320,177.425 400.000,200.000 400.000 C 222.575 400.000,225.000 398.320,225.000 382.677 C 225.000 376.734,227.352 374.602,236.719 372.056 C 252.377 367.800,270.567 357.873,286.645 344.809 C 297.943 335.629,300.810 334.589,306.468 337.617 C 326.723 348.457,352.011 307.604,332.826 295.034 C 325.618 290.311,325.178 288.649,327.007 273.087 L 328.986 256.250 303.555 256.250 C 281.445 256.250,278.116 256.964,278.056 261.719 C 277.502 305.928,209.138 341.381,166.767 319.434 C 143.854 307.565,122.169 279.643,121.944 261.719 C 121.884 256.964,118.555 256.250,96.445 256.250 L 71.014 256.250 72.993 273.087 " stroke="none" fill="#000080" fill-rule="evenodd"></path></g></svg>